<svg width="100" height="100" viewBox="0 0 100 100" fill="none" xmlns="http://www.w3.org/2000/svg">
<path d="M49.5312 98.7692C76.8866 98.7692 99.0625 76.9344 99.0625 49.9999C99.0625 23.0654 76.8866 1.23071 49.5312 1.23071C22.1759 1.23071 0 23.0654 0 49.9999C0 76.9344 22.1759 98.7692 49.5312 98.7692Z" fill="#F5B300"/>
<path d="M36.0938 25.0769C37.8125 25.5384 39.5312 25.8461 41.25 26.3077C42.9688 26.7692 44.6875 27.0769 46.4063 27.5384C46.875 27.6923 47.0313 27.5384 47.1875 27.0769C47.8125 24.4615 48.4375 22 49.0625 19.3846C49.2188 18.923 49.375 18.7692 49.8438 18.923C51.4062 19.3846 52.8125 19.6923 54.375 20C54.8438 20.1538 54.8438 20.3077 54.6875 20.6154C54.0625 23.0769 53.4375 25.6923 52.8125 28.1538C52.8125 28.3077 52.8125 28.4615 52.6563 28.7692C53.9063 29.0769 55.3125 29.3846 56.5625 29.6923C56.7188 29.6923 56.875 29.3846 57.0312 29.2307C57.5 27.2307 57.9688 25.3846 58.5938 23.3846L59.0625 21.5384C59.0625 21.2307 59.2188 21.0769 59.5312 21.2307C61.0938 21.6923 62.6562 22 64.375 22.4615C64.5312 22.4615 64.5313 22.6154 64.6875 22.6154C64.2188 24.6154 63.75 26.4615 63.2812 28.3077C63.125 29.0769 62.9688 29.8461 62.6562 30.6154C62.5 31.0769 62.6563 31.2307 63.125 31.3846L68.2812 33.6923C69.8438 34.6154 71.25 35.8461 72.3438 37.3846C73.75 39.6923 73.9063 42.1538 73.2813 44.6154C72.8125 46.3077 72.1875 47.8461 70.9375 49.0769C70 50 68.75 50.6154 67.5 51.0769C67.3438 51.0769 67.1875 51.2307 66.875 51.2307C67.5 51.6923 68.125 52 68.75 52.4615C70.625 53.8461 71.875 55.5384 72.5 57.6923C72.8125 59.3846 72.6562 61.2307 72.1875 62.923C71.5625 65.0769 70.7813 66.923 69.375 68.6154C67.6563 70.6154 65.4688 71.6923 62.9688 72C59.6875 72.4615 56.5625 72.1538 53.4375 71.6923C52.9688 71.5384 52.6562 71.6923 52.5 72.1538C51.875 74.6154 51.25 77.2307 50.625 79.6923C50.4688 80.3077 50.4688 80.4615 49.6875 80.1538C48.2812 79.8461 46.7188 79.3846 45.3125 79.0769C44.8438 78.923 44.8438 78.7692 45 78.4615C45.625 75.8461 46.25 73.2307 47.0313 70.7692C47.0313 70.4615 47.1875 70.3077 46.875 70.1538C45.625 69.8461 44.375 69.5384 42.9688 69.2307C42.6562 70.6154 42.1875 72 41.875 73.3846C41.5625 74.7692 41.0938 76.1538 40.7813 77.5384C40.625 77.8461 40.625 78 40.1563 77.8461C38.5938 77.3846 37.0313 77.0769 35.4688 76.7692C35 76.6154 35 76.4615 35.1563 76.1538C35.7813 73.5384 36.4062 70.923 37.1875 68.4615C37.1875 68.3077 37.3438 68.1538 37.3438 67.8461C33.75 66.923 30.1563 66 26.4062 65.0769C26.7188 64.4615 26.875 64 27.1875 63.3846C27.8125 62 28.4375 60.6154 28.9063 59.3846C29.0625 58.923 29.2188 58.923 29.6875 58.923C30.7813 59.2307 32.0313 59.5384 33.125 59.6923C34.375 60 35.3125 59.3846 35.4688 58.3077C37.5 50.4615 39.5313 42.6154 41.4063 34.6154C41.7188 33.3846 40.9375 32 39.5312 31.5384C38.125 31.0769 36.7188 30.7692 35.4688 30.4615C35.1563 30.4615 35 30.3077 35.1563 30C35.625 28.3077 36.0938 26.4615 36.5625 24.7692C35.9375 25.2307 35.9375 25.2307 36.0938 25.0769ZM44.0625 63.0769C44.2188 63.0769 44.375 63.2307 44.375 63.2307C46.875 63.8461 49.5313 64.6154 52.1875 64.7692C54.0625 64.923 55.7812 64.923 57.5 64.3077C60.4688 63.3846 61.7188 59.5384 60 57.0769C59.2188 55.8461 57.9688 55.0769 56.7188 54.3077C53.9062 52.7692 50.625 52.1538 47.5 51.5384C47.0312 51.3846 47.0312 51.5384 46.875 52C46.5625 53.5384 46.0938 54.923 45.7812 56.4615C45.1562 58.6154 44.6875 60.7692 44.0625 63.0769ZM57.1875 47.3846C57.5 47.3846 58.2813 47.2307 58.9062 47.0769C61.875 46.4615 63.4375 43.0769 61.875 40.4615C61.0938 39.0769 59.6875 38.1538 58.2812 37.5384C56.0938 36.6154 53.9062 36.1538 51.5625 35.5384C51.0938 35.3846 50.9375 35.5384 50.7812 36C50 39.2307 49.2188 42.3077 48.2812 45.5384C48.125 45.8461 48.2813 46 48.5938 46.1538C49.2188 46.3077 49.6875 46.4615 50.3125 46.6154C52.6563 46.923 54.6875 47.3846 57.1875 47.3846Z" fill="white"/>
</svg>
