<svg width="122" height="28" viewBox="0 0 122 28" fill="none" xmlns="http://www.w3.org/2000/svg">
<path d="M16.9182 21.2272C14.6909 20.3999 12.4 20.2727 10.3 20.8454C8.83636 21.2272 7.43636 21.9908 6.16363 22.9454L5.27271 23.709L5.01817 23.9636L5.59089 24.4726C5.65453 24.4726 5.65453 24.5363 5.71817 24.5999C5.84544 24.7272 5.97272 24.7908 6.16363 24.9181L6.54543 25.1727L6.92726 24.8545C6.99089 24.7908 7.11817 24.6636 7.24544 24.5999C8.39089 23.6454 9.66362 23.009 11 22.6908C12.7182 22.2454 14.5636 22.309 16.4091 23.009C17.9363 23.5817 21.0545 24.2817 24.8091 22.6908L24.9364 22.6272L25.1273 22.4363C25.1273 22.3727 25.1909 22.3727 25.2545 22.309C25.5727 21.9272 25.8909 21.5454 26.1454 21.0999L27.4182 19.1272L25.3818 20.2726C22.3909 21.9272 19.6545 22.2454 16.9182 21.2272Z" fill="white"/>
<path d="M8.2 14.3544C9.91819 13.909 11.7636 13.9726 13.6091 14.6726C15.6455 15.4363 20.8636 16.5181 26.7182 11.2363L27.6727 10.2817L27.7364 10.2181L27.9909 9.96354L27.8636 9.64536C27.8 9.39081 27.6727 9.07263 27.5455 8.75445L27.2273 7.86353L26.5909 8.49989C26.5273 8.62716 26.4 8.6908 26.2727 8.81807C23.4727 11.6817 19.1455 14.609 14.1818 12.8272C11.9545 11.9999 9.66364 11.8726 7.56364 12.4454C5.52728 13.0181 3.74545 14.0999 2.09091 15.6272V15.5635L1.13636 16.5817C1.13636 16.6454 1.07274 16.6454 1.0091 16.709L0.818182 16.8999L0.881822 17.1544C0.945459 17.4726 1.07273 17.7908 1.13636 18.109L1.51819 19.1272L2.15455 18.2999C2.21819 18.1726 2.34545 18.109 2.40909 17.9817C3.74545 16.7726 5.59091 15.0544 8.2 14.3544Z" fill="white"/>
<path d="M2.02729 13.2092C3.49092 11.6819 5.14546 10.7273 6.92728 10.2183C8.64546 9.7728 10.4909 9.83644 12.3364 10.5364C18.0636 12.6364 23.0273 9.20007 25.1909 7.35462L26.0182 6.52735L26.3364 6.27279L26.0818 5.89099C25.8909 5.70008 25.7637 5.44553 25.5727 5.19099L25.1909 4.68188L24.7455 5.12735C24.6818 5.19098 24.5546 5.31825 24.4909 5.38189C21.8182 7.92734 17.6818 10.5364 12.9727 8.75463C10.7455 7.92735 8.45455 7.80008 6.35455 8.37281C5.01819 8.75462 3.74546 9.39098 2.47273 10.2183L1.13636 11.3001C1.00909 11.4274 0.945455 11.491 0.818182 11.6183L0.690921 11.7455V11.9364C0.627284 12.3819 0.627277 12.8274 0.56364 13.2092L0.5 14.8001L1.58183 13.6546C1.7091 13.5273 1.83638 13.3364 2.02729 13.2092Z" fill="white"/>
<path d="M18.7636 25.5545L18.6364 25.9364L18.7636 25.5545C18.5727 25.4909 18.4455 25.4273 18.2546 25.3636C16.0273 24.5364 13.7364 24.4091 11.6364 24.9818C11.1909 25.1091 10.7455 25.2364 10.3 25.4273L8.77273 26.1273L8.39092 26.3182L9.66365 26.7636C10.0455 26.8909 10.4273 27.0182 10.8091 27.1455L11 27.2091L11.1909 27.1455C11.3818 27.0818 11.5727 26.9545 11.7636 26.9545C11.8909 26.9545 12.0182 26.8909 12.1455 26.8273C13.6727 26.4455 15.3273 26.4454 17.1091 27.0182C17.3 27.0818 17.4273 27.1455 17.6182 27.2091L17.9364 27.3364L18.1273 27.2727C18.5727 27.1454 19.0818 27.0182 19.4636 26.8273L21.2455 26.1909L19.4 25.7454C19.2091 25.6818 18.9546 25.6182 18.7636 25.5545Z" fill="white"/>
<path d="M28.5 12.3818L27.5455 13.3364C27.4182 13.4637 27.2909 13.5909 27.1637 13.7182C24.5546 16.2 20.3546 18.8727 15.6455 17.0909C13.4182 16.2637 11.1273 16.1364 9.02731 16.7091C7.05458 17.2818 5.27275 18.3 3.68184 19.8273L2.85457 20.7182L2.60003 21.0364L2.85457 21.4182C3.04548 21.6728 3.17276 21.8637 3.30003 22.1182L3.68184 22.6909L4.1273 22.1182C4.19094 22.0546 4.3182 21.9273 4.38184 21.8637C5.90911 20.2091 7.56366 19.1909 9.47275 18.6818C11.1909 18.2364 13.0364 18.3 14.8818 19C16.4728 19.5727 18.1273 19.7637 19.7818 19.5728C22.7091 19.2546 25.6364 17.6 27.8 15.7546C27.9273 15.6273 28.0546 15.5637 28.1818 15.4364L28.3728 15.2455V15.0546C28.3728 14.6728 28.4364 14.2273 28.4364 13.8455L28.5 12.3818Z" fill="white"/>
<path d="M4.31814 6.52722L4.12724 6.1454L4.31814 6.52722C4.69996 6.33631 5.14543 6.20903 5.52725 6.08176C7.24543 5.6363 9.09089 5.69994 10.9363 6.39994C12.1454 6.84539 13.3545 7.0363 14.6909 7.0363C17.3636 7.0363 20.0363 6.08176 22.5181 4.23631L23.4727 3.47266L23.7909 3.21812L23.2182 2.77266C23.0272 2.58175 22.7727 2.39085 22.5181 2.26357L22.1363 2.00903L21.8181 2.26357C21.6909 2.32721 21.6272 2.45448 21.5 2.51812C18.1272 5.06357 14.7545 5.76358 11.5727 4.55449C9.28179 3.72722 6.99087 3.53631 4.69996 4.23631C4.50906 4.29994 4.31815 4.36357 4.0636 4.42721L3.93634 4.49085L3.74542 4.68175C3.74542 4.74539 3.68179 4.74539 3.61816 4.80903C3.36361 5.19085 3.04542 5.50904 2.79087 5.89086L1.58179 7.73631L3.55452 6.71812C3.8727 6.71812 4.12723 6.59086 4.31814 6.52722Z" fill="white"/>
<path d="M9.53637 2.19993L9.72727 2.26357C10.5545 2.58175 11.8273 2.89993 13.4182 2.89993C15.0727 2.89993 16.6637 2.51811 18.2546 1.88174L20.2273 0.927199L18.8909 0.481756C18.5091 0.354483 18.1273 0.227211 17.6818 0.163574H17.4909L17.3 0.227195C17.1091 0.290831 16.9182 0.41812 16.7273 0.481756C14.8182 1.18176 12.9091 1.30903 11.0636 0.799938C10.8727 0.736301 10.6818 0.672653 10.4909 0.609017L10.3 0.545377L10.1091 0.609017C9.72728 0.73629 9.34547 0.86357 8.96365 1.05448L7.5 1.69084L9.02729 2.13629C9.15456 2.07265 9.34546 2.13629 9.53637 2.19993Z" fill="white"/>
<path d="M43.9922 10.2891L42.6562 10.8516C42.5521 10.513 42.4115 10.2031 42.2344 9.92188C42.0625 9.64062 41.8542 9.40104 41.6094 9.20312C41.3698 9 41.0964 8.84375 40.7891 8.73438C40.4818 8.61979 40.1458 8.5625 39.7812 8.5625C39.3906 8.5625 39.0312 8.6276 38.7031 8.75781C38.3802 8.88281 38.0885 9.05729 37.8281 9.28125C37.5729 9.50521 37.349 9.76562 37.1562 10.0625C36.9635 10.3594 36.8021 10.6771 36.6719 11.0156C36.5417 11.349 36.4453 11.6953 36.3828 12.0547C36.3203 12.4141 36.2891 12.7656 36.2891 13.1094C36.2891 13.6562 36.3516 14.2005 36.4766 14.7422C36.6068 15.2839 36.8099 15.7708 37.0859 16.2031C37.3672 16.6354 37.7292 16.987 38.1719 17.2578C38.6146 17.5234 39.151 17.6562 39.7812 17.6562C40.1146 17.6562 40.4297 17.6016 40.7266 17.4922C41.0234 17.3776 41.2917 17.224 41.5312 17.0312C41.776 16.8333 41.9896 16.6016 42.1719 16.3359C42.3542 16.0703 42.5 15.7839 42.6094 15.4766L43.9609 16.0156C43.763 16.5104 43.4922 16.9453 43.1484 17.3203C42.8047 17.6901 42.4115 17.9974 41.9688 18.2422C41.5312 18.487 41.0599 18.6693 40.5547 18.7891C40.0547 18.9141 39.5495 18.9766 39.0391 18.9766C38.487 18.9766 37.9557 18.9089 37.4453 18.7734C36.9401 18.638 36.4688 18.4453 36.0312 18.1953C35.5938 17.9453 35.1953 17.6432 34.8359 17.2891C34.4818 16.9349 34.1771 16.5417 33.9219 16.1094C33.6719 15.6771 33.4766 15.2083 33.3359 14.7031C33.2005 14.1927 33.1328 13.6615 33.1328 13.1094C33.1328 12.5573 33.2005 12.0286 33.3359 11.5234C33.4766 11.013 33.6719 10.5417 33.9219 10.1094C34.1771 9.67188 34.4818 9.27604 34.8359 8.92188C35.1953 8.56771 35.5938 8.26562 36.0312 8.01562C36.4688 7.76562 36.9401 7.57292 37.4453 7.4375C37.9557 7.30208 38.487 7.23438 39.0391 7.23438C39.5703 7.23438 40.0885 7.29688 40.5938 7.42188C41.1042 7.54688 41.5781 7.73698 42.0156 7.99219C42.4531 8.24219 42.8411 8.5599 43.1797 8.94531C43.5234 9.32552 43.7943 9.77344 43.9922 10.2891ZM53.3047 10.5234L51.8203 12.9844C51.7578 12.776 51.6771 12.5417 51.5781 12.2812C51.4792 12.0208 51.3568 11.7786 51.2109 11.5547C51.0651 11.3255 50.8906 11.1354 50.6875 10.9844C50.4844 10.8281 50.25 10.75 49.9844 10.75C49.7396 10.75 49.526 10.8125 49.3438 10.9375C49.1667 11.0625 49.0156 11.2266 48.8906 11.4297C48.7656 11.6276 48.6615 11.8542 48.5781 12.1094C48.5 12.3594 48.4375 12.6146 48.3906 12.875C48.349 13.1302 48.3203 13.3776 48.3047 13.6172C48.2891 13.8516 48.2812 14.0547 48.2812 14.2266V18.75H45.6328V9.72656H46.6484L47.7188 11.8281C47.8646 11.4896 48.0312 11.1797 48.2188 10.8984C48.4062 10.612 48.6224 10.3672 48.8672 10.1641C49.112 9.95573 49.388 9.79427 49.6953 9.67969C50.0078 9.5651 50.3594 9.50781 50.75 9.50781C50.9531 9.50781 51.1797 9.52604 51.4297 9.5625C51.6797 9.59375 51.9245 9.65104 52.1641 9.73438C52.4036 9.8125 52.625 9.91667 52.8281 10.0469C53.0312 10.1771 53.1901 10.3359 53.3047 10.5234ZM62.4922 9.72656L59.2109 17.6641C58.8359 18.5703 58.4167 19.4661 57.9531 20.3516C57.4948 21.2422 56.9974 22.0964 56.4609 22.9141L55.4297 22.2891C55.5599 22.0547 55.7135 21.7839 55.8906 21.4766C56.0677 21.1693 56.2422 20.8516 56.4141 20.5234C56.5859 20.1953 56.7448 19.8698 56.8906 19.5469C57.0365 19.2292 57.1484 18.9375 57.2266 18.6719L53.2812 9.72656H55.9219L58.6016 15.8281L60.6641 9.72656H62.4922ZM73.1953 14.2188C73.1953 14.875 73.0964 15.4896 72.8984 16.0625C72.7005 16.6354 72.4141 17.1354 72.0391 17.5625C71.6641 17.9844 71.2057 18.3177 70.6641 18.5625C70.1224 18.8073 69.5078 18.9297 68.8203 18.9297C68.2943 18.9297 67.8099 18.8281 67.3672 18.625C66.9297 18.4167 66.5547 18.099 66.2422 17.6719V22.9141H63.6016V9.72656H64.6172L65.7891 11.6875C65.9036 11.3594 66.0599 11.0625 66.2578 10.7969C66.4609 10.526 66.6927 10.2969 66.9531 10.1094C67.2188 9.91667 67.5078 9.76823 67.8203 9.66406C68.138 9.5599 68.4714 9.50781 68.8203 9.50781C69.5078 9.50781 70.1224 9.63021 70.6641 9.875C71.2057 10.1198 71.6641 10.4557 72.0391 10.8828C72.4141 11.3047 72.7005 11.8021 72.8984 12.375C73.0964 12.9479 73.1953 13.5625 73.1953 14.2188ZM70.5156 14.2188C70.5156 13.9896 70.5026 13.7474 70.4766 13.4922C70.4557 13.2318 70.4167 12.974 70.3594 12.7188C70.3021 12.4635 70.2214 12.2188 70.1172 11.9844C70.0182 11.75 69.8906 11.5443 69.7344 11.3672C69.5781 11.1849 69.388 11.0417 69.1641 10.9375C68.9453 10.8281 68.6901 10.7734 68.3984 10.7734C68.0964 10.7734 67.8333 10.8255 67.6094 10.9297C67.3906 11.0339 67.2005 11.1771 67.0391 11.3594C66.8828 11.5365 66.7526 11.7422 66.6484 11.9766C66.5495 12.2057 66.4714 12.4479 66.4141 12.7031C66.3568 12.9583 66.3151 13.2161 66.2891 13.4766C66.2682 13.737 66.2578 13.9844 66.2578 14.2188C66.2578 14.4271 66.2734 14.6589 66.3047 14.9141C66.3359 15.1641 66.3854 15.4167 66.4531 15.6719C66.5208 15.9271 66.6094 16.1745 66.7188 16.4141C66.8281 16.6536 66.9609 16.8672 67.1172 17.0547C67.2786 17.2422 67.4635 17.3932 67.6719 17.5078C67.8854 17.6172 68.1276 17.6719 68.3984 17.6719C68.6953 17.6719 68.9531 17.6198 69.1719 17.5156C69.3906 17.4062 69.5781 17.263 69.7344 17.0859C69.8906 16.9036 70.0182 16.6953 70.1172 16.4609C70.2214 16.2266 70.3021 15.9818 70.3594 15.7266C70.4167 15.4714 70.4557 15.2135 70.4766 14.9531C70.5026 14.6927 70.5156 14.4479 70.5156 14.2188ZM78.1094 18.75H75.4609V10.7734H73.8203V9.72656H75.4609V6.40625H78.1094V9.72656H80.8438V10.7734H78.1094V18.75ZM89.7422 10.5234L88.2578 12.9844C88.1953 12.776 88.1146 12.5417 88.0156 12.2812C87.9167 12.0208 87.7943 11.7786 87.6484 11.5547C87.5026 11.3255 87.3281 11.1354 87.125 10.9844C86.9219 10.8281 86.6875 10.75 86.4219 10.75C86.1771 10.75 85.9635 10.8125 85.7812 10.9375C85.6042 11.0625 85.4531 11.2266 85.3281 11.4297C85.2031 11.6276 85.099 11.8542 85.0156 12.1094C84.9375 12.3594 84.875 12.6146 84.8281 12.875C84.7865 13.1302 84.7578 13.3776 84.7422 13.6172C84.7266 13.8516 84.7188 14.0547 84.7188 14.2266V18.75H82.0703V9.72656H83.0859L84.1562 11.8281C84.3021 11.4896 84.4688 11.1797 84.6562 10.8984C84.8438 10.612 85.0599 10.3672 85.3047 10.1641C85.5495 9.95573 85.8255 9.79427 86.1328 9.67969C86.4453 9.5651 86.7969 9.50781 87.1875 9.50781C87.3906 9.50781 87.6172 9.52604 87.8672 9.5625C88.1172 9.59375 88.362 9.65104 88.6016 9.73438C88.8411 9.8125 89.0625 9.91667 89.2656 10.0469C89.4688 10.1771 89.6276 10.3359 89.7422 10.5234ZM99.75 18.75H97.1094V17.6719C96.7969 18.099 96.4193 18.4167 95.9766 18.625C95.5391 18.8281 95.0573 18.9297 94.5312 18.9297C93.8438 18.9297 93.2292 18.8073 92.6875 18.5625C92.1458 18.3177 91.6875 17.9844 91.3125 17.5625C90.9375 17.1354 90.651 16.6354 90.4531 16.0625C90.2552 15.4896 90.1562 14.875 90.1562 14.2188C90.1562 13.5625 90.2552 12.9479 90.4531 12.375C90.651 11.8021 90.9375 11.3047 91.3125 10.8828C91.6875 10.4557 92.1458 10.1198 92.6875 9.875C93.2292 9.63021 93.8438 9.50781 94.5312 9.50781C94.8802 9.50781 95.2109 9.5599 95.5234 9.66406C95.8411 9.76823 96.1302 9.91667 96.3906 10.1094C96.6562 10.2969 96.888 10.526 97.0859 10.7969C97.2891 11.0625 97.4479 11.3594 97.5625 11.6875L98.7344 9.72656H99.75V18.75ZM97.0938 14.2188C97.0938 13.9844 97.0807 13.737 97.0547 13.4766C97.0339 13.2161 96.9948 12.9583 96.9375 12.7031C96.8802 12.4479 96.7995 12.2057 96.6953 11.9766C96.5964 11.7422 96.4661 11.5365 96.3047 11.3594C96.1484 11.1771 95.9583 11.0339 95.7344 10.9297C95.5104 10.8255 95.25 10.7734 94.9531 10.7734C94.6562 10.7734 94.3984 10.8281 94.1797 10.9375C93.9609 11.0417 93.7734 11.1849 93.6172 11.3672C93.4609 11.5443 93.3307 11.75 93.2266 11.9844C93.1276 12.2188 93.0495 12.4635 92.9922 12.7188C92.9349 12.974 92.8932 13.2318 92.8672 13.4922C92.8464 13.7474 92.8359 13.9896 92.8359 14.2188C92.8359 14.4479 92.8464 14.6927 92.8672 14.9531C92.8932 15.2135 92.9349 15.4714 92.9922 15.7266C93.0495 15.9818 93.1276 16.2266 93.2266 16.4609C93.3307 16.6953 93.4609 16.9036 93.6172 17.0859C93.7734 17.263 93.9609 17.4062 94.1797 17.5156C94.3984 17.6198 94.6562 17.6719 94.9531 17.6719C95.224 17.6719 95.4635 17.6172 95.6719 17.5078C95.8854 17.3932 96.0703 17.2422 96.2266 17.0547C96.388 16.8672 96.5234 16.6536 96.6328 16.4141C96.7422 16.1745 96.8307 15.9271 96.8984 15.6719C96.9661 15.4167 97.0156 15.1641 97.0469 14.9141C97.0781 14.6589 97.0938 14.4271 97.0938 14.2188ZM110.289 11.9609L109.148 12.4141C108.966 11.8411 108.661 11.401 108.234 11.0938C107.807 10.7865 107.294 10.6328 106.695 10.6328C106.372 10.6328 106.083 10.6849 105.828 10.7891C105.578 10.888 105.357 11.026 105.164 11.2031C104.977 11.3802 104.815 11.5859 104.68 11.8203C104.549 12.0547 104.443 12.3047 104.359 12.5703C104.276 12.8359 104.216 13.112 104.18 13.3984C104.143 13.6797 104.125 13.9531 104.125 14.2188C104.125 14.5052 104.141 14.7943 104.172 15.0859C104.203 15.3776 104.255 15.6589 104.328 15.9297C104.406 16.1953 104.508 16.4453 104.633 16.6797C104.758 16.9089 104.914 17.1094 105.102 17.2812C105.294 17.4531 105.521 17.5885 105.781 17.6875C106.047 17.7865 106.352 17.8359 106.695 17.8359C106.971 17.8359 107.234 17.7943 107.484 17.7109C107.734 17.6276 107.964 17.5104 108.172 17.3594C108.38 17.2083 108.565 17.0286 108.727 16.8203C108.888 16.612 109.016 16.3802 109.109 16.125L110.258 16.5469C110.086 16.9583 109.857 17.3151 109.57 17.6172C109.289 17.9141 108.969 18.1615 108.609 18.3594C108.25 18.5521 107.865 18.6953 107.453 18.7891C107.042 18.8828 106.625 18.9297 106.203 18.9297C105.521 18.9297 104.888 18.8151 104.305 18.5859C103.721 18.3516 103.216 18.026 102.789 17.6094C102.367 17.1875 102.036 16.6901 101.797 16.1172C101.557 15.5391 101.438 14.9062 101.438 14.2188C101.438 13.526 101.555 12.8906 101.789 12.3125C102.029 11.7344 102.359 11.237 102.781 10.8203C103.203 10.4036 103.706 10.0807 104.289 9.85156C104.872 9.6224 105.51 9.50781 106.203 9.50781C106.641 9.50781 107.068 9.55729 107.484 9.65625C107.901 9.75 108.286 9.89844 108.641 10.1016C109 10.2995 109.32 10.5521 109.602 10.8594C109.888 11.1667 110.117 11.5339 110.289 11.9609ZM114.492 18.75H111.852V6.40625H114.492V14.5078C114.924 14.1953 115.349 13.8516 115.766 13.4766C116.188 13.1016 116.589 12.7083 116.969 12.2969C117.349 11.8802 117.701 11.4557 118.023 11.0234C118.352 10.5911 118.638 10.1589 118.883 9.72656H120.68C120.315 10.3411 119.883 10.9557 119.383 11.5703C118.883 12.1797 118.339 12.763 117.75 13.3203L120.711 18.75H117.797L115.695 14.9844C115.305 15.25 114.904 15.4948 114.492 15.7188V18.75Z" fill="white"/>
</svg>
