<svg width="100" height="100" viewBox="0 0 100 100" fill="none" xmlns="http://www.w3.org/2000/svg">
<path d="M71.6797 62.5156V52.7578L63.7422 57.3359V67.1016L71.6797 62.5156Z" fill="#D8A353"/>
<path d="M71.6797 37.4844L63.4453 32.7266L50 40.4922L36.5547 32.7266L28.3203 37.4844V46.1328L41.9922 54.0313V70.4141L50 75.0391L58.0078 70.4141V54.0313L71.6797 46.1328V37.4844ZM85.4297 38.1953V29.5469L77.1953 24.7891L69.1797 29.4141L77.4141 34.1719V42.8203L85.4297 38.1953ZM22.5859 42.8203V34.1719L30.8203 29.4141L22.8047 24.7891L14.5703 29.5469V38.1953L22.5859 42.8203Z" fill="#D8A353"/>
<path d="M28.3203 62.5156L36.2578 67.1016V57.3359L28.3203 52.7578V62.5156ZM58.0078 77.0391L50 81.6641L41.9922 77.0391V86.2891L50 90.9141L58.0078 86.2891V77.0391ZM57.7109 29.4141L50 24.9609L42.2891 29.4141L50 33.8672L57.7109 29.4141ZM77.4141 49.4453V65.8281L63.7422 73.7266V82.9766L85.4297 70.4531V44.8203L77.4141 49.4453Z" fill="#D8A353"/>
<path d="M36.2578 73.7266L22.5859 65.8281V49.4453L14.5703 44.8203V70.4531L36.2578 82.9766V73.7266ZM36.5547 26.1016L50 18.3438L63.4453 26.1016L71.4609 21.4766L50 9.08594L28.5391 21.4766L36.5547 26.1016Z" fill="#D8A353"/>
</svg>
