<svg width="100" height="100" viewBox="0 0 100 100" fill="none" xmlns="http://www.w3.org/2000/svg">
<path d="M50.3125 98.6154C77.6679 98.6154 99.8438 76.7806 99.8438 49.8461C99.8438 22.9116 77.6679 1.0769 50.3125 1.0769C22.9571 1.0769 0.78125 22.9116 0.78125 49.8461C0.78125 76.7806 22.9571 98.6154 50.3125 98.6154Z" fill="#00A478"/>
<path d="M44.6875 45.2308V32.7693H27.9688V21.8462H74.6875V32.9231H57.9687V45.2308H44.6875Z" fill="white"/>
<path d="M50.9375 40.3077C68.4375 40.3077 77.5 45.0769 78.5938 46.6154C77.5 48.1538 68.5938 50.4615 50.9375 50.4615C33.4375 50.4615 24.375 48.1538 23.2812 46.6154C24.375 44.9231 33.4375 40.3077 50.9375 40.3077ZM50.9375 39.0769C34.2188 39.0769 20.7812 42.4615 20.7812 46.6154C20.7812 50.7692 34.2188 54.1538 50.9375 54.1538C67.6563 54.1538 81.0938 50.7692 81.0938 46.6154C81.0938 42.4615 67.6563 39.0769 50.9375 39.0769Z" fill="white"/>
<path d="M57.9688 49.0769V40.4615C55.7813 40.3077 53.4375 40.1538 51.0937 40.1538C48.9062 40.1538 46.875 40.1538 44.8438 40.3077V48.923C46.7188 48.923 48.9062 49.0769 51.0937 49.0769C53.4375 49.2307 55.7813 49.2307 57.9688 49.0769Z" fill="white"/>
<path d="M50.9375 54.1538C48.75 54.1538 46.7188 54.1538 44.6875 53.9999V76.923H57.8125V53.8461C55.625 53.9999 53.2812 54.1538 50.9375 54.1538Z" fill="white"/>
</svg>
